<svg width="24" height="24" viewBox="0 0 24 24" fill="none" xmlns="http://www.w3.org/2000/svg">
<path d="M5.71429 0V2.28571H1.14286C0.51168 2.28571 0 2.79739 0 3.42857V21.7143C0 22.3455 0.51168 22.8571 1.14286 22.8571H10.0053C8.75054 21.2919 8 19.305 8 17.1429C8 12.0934 12.0934 8 17.1429 8C19.305 8 21.2919 8.75054 22.8571 10.0053V3.42857C22.8571 2.79739 22.3455 2.28571 21.7143 2.28571H17.1429V0H14.8571V2.28571H8V0H5.71429ZM24 17.1429C24 20.9299 20.9299 24 17.1429 24C13.3558 24 10.2857 20.9299 10.2857 17.1429C10.2857 13.3558 13.3558 10.2857 17.1429 10.2857C20.9299 10.2857 24 13.3558 24 17.1429ZM16 12.5714V17.6162L18.6205 20.2367L20.2367 18.6205L18.2857 16.6695V12.5714H16Z" fill="#6e6d26"/>
</svg>
