<svg width="24" height="24" viewBox="0 0 24 24" fill="none" xmlns="http://www.w3.org/2000/svg">
<path d="M9.56983 8.59122C11.21 7.11875 11.21 4.7314 9.56983 3.25893C7.92964 1.78645 5.27035 1.78645 3.63015 3.25893C1.98995 4.7314 1.98995 7.11875 3.63015 8.59122L6.59999 11.2573L9.56983 8.59122ZM6.59999 14.3044L1.93309 10.1148C-0.644363 7.80085 -0.644363 4.0493 1.93309 1.73541C4.51055 -0.578471 8.68943 -0.578471 11.2669 1.73541C13.8444 4.0493 13.8444 7.80085 11.2669 10.1148L6.59999 14.3044ZM6.59999 7.54101C5.60588 7.54101 4.79999 6.81753 4.79999 5.92508C4.79999 5.03262 5.60588 4.30915 6.59999 4.30915C7.59411 4.30915 8.39999 5.03262 8.39999 5.92508C8.39999 6.81753 7.59411 7.54101 6.59999 7.54101ZM17.4 20.9529L20.3699 18.2868C22.01 16.8143 22.01 14.427 20.3699 12.9545C18.7296 11.482 16.0704 11.482 14.4301 12.9545C12.7899 14.427 12.7899 16.8143 14.4301 18.2868L17.4 20.9529ZM22.0669 19.8103L17.4 24L12.7331 19.8103C10.1556 17.4964 10.1556 13.7449 12.7331 11.431C15.3105 9.11711 19.4894 9.11711 22.0669 11.431C24.6444 13.7449 24.6444 17.4964 22.0669 19.8103ZM17.4 17.2366C16.4059 17.2366 15.6 16.5131 15.6 15.6207C15.6 14.7282 16.4059 14.0047 17.4 14.0047C18.3941 14.0047 19.2 14.7282 19.2 15.6207C19.2 16.5131 18.3941 17.2366 17.4 17.2366Z" fill="#6e6d26"/>
</svg>
