<svg width="24" height="24" viewBox="0 0 24 24" fill="none" xmlns="http://www.w3.org/2000/svg">
<path d="M12 20.8758L18.5996 15.4084C22.2445 12.389 22.2445 7.49332 18.5996 4.47379C14.9548 1.45426 9.04521 1.45426 5.40033 4.47379C1.75544 7.49332 1.75544 12.389 5.40033 15.4084L12 20.8758ZM12 24L3.51471 16.9706C-1.17157 13.0883 -1.17157 6.79395 3.51471 2.91169C8.201 -0.970564 15.7989 -0.970564 20.4853 2.91169C25.1716 6.79395 25.1716 13.0883 20.4853 16.9706L12 24ZM12 12.1503C13.4728 12.1503 14.6666 11.1612 14.6666 9.94114C14.6666 8.72106 13.4728 7.73199 12 7.73199C10.5272 7.73199 9.33332 8.72106 9.33332 9.94114C9.33332 11.1612 10.5272 12.1503 12 12.1503ZM12 14.3594C9.05447 14.3594 6.66666 12.3812 6.66666 9.94114C6.66666 7.50098 9.05447 5.52285 12 5.52285C14.9454 5.52285 17.3333 7.50098 17.3333 9.94114C17.3333 12.3812 14.9454 14.3594 12 14.3594Z" fill="black"/>
</svg>
